<svg width="48" height="48" viewBox="0 0 14 14" fill="none" xmlns="http://www.w3.org/2000/svg">
<g clip-path="url(#clip0_1_247)">
<path d="M5.21115 4.20979C4.84473 4.67146 4.6443 5.24299 4.64211 5.83239C4.64211 5.94019 4.59928 6.04358 4.52306 6.1198C4.44683 6.19603 4.34344 6.23885 4.23564 6.23885C2.76262 6.23885 2.20333 7.26639 2.20333 7.8647C2.20333 8.21182 2.29112 8.61097 2.5602 8.91825C2.81953 9.21416 3.30403 9.49055 4.23564 9.49055H4.64211C4.64211 9.76776 4.66731 10.0401 4.71527 10.3035H4.23564C3.13494 10.3035 2.40006 9.97018 1.94807 9.45316C1.50584 8.94752 1.3904 8.33051 1.3904 7.8647C1.3904 6.90708 2.17488 5.61697 3.85194 5.44544C3.92513 4.8048 4.17823 4.19798 4.58195 3.69521C5.11604 3.04162 5.94279 2.58069 7.08088 2.58069C7.77187 2.58069 8.57748 2.80831 9.21888 3.33346C9.73752 3.7578 10.1359 4.36831 10.2765 5.1723C9.99304 5.09621 9.70278 5.04829 9.40991 5.02922C9.28836 4.60971 9.04161 4.23732 8.70267 3.96185C8.24111 3.59589 7.66991 3.39576 7.08088 3.39361C6.18666 3.39361 5.59079 3.74561 5.21115 4.20979ZM12.7714 9.49055C12.7714 9.97095 12.6767 10.4466 12.4929 10.8905C12.3091 11.3343 12.0396 11.7376 11.6999 12.0773C11.3602 12.417 10.9569 12.6864 10.5131 12.8703C10.0693 13.0541 9.59359 13.1487 9.11319 13.1487C8.6328 13.1487 8.1571 13.0541 7.71328 12.8703C7.26945 12.6864 6.86617 12.417 6.52648 12.0773C6.18679 11.7376 5.91733 11.3343 5.73349 10.8905C5.54965 10.4466 5.45503 9.97095 5.45503 9.49055C5.45503 8.52035 5.84044 7.58988 6.52648 6.90384C7.21252 6.2178 8.14299 5.83239 9.11319 5.83239C10.0834 5.83239 11.0139 6.2178 11.6999 6.90384C12.3859 7.58988 12.7714 8.52035 12.7714 9.49055ZM11.0268 7.98339C10.9891 7.94554 10.9442 7.91551 10.8948 7.89502C10.8454 7.87453 10.7925 7.86398 10.739 7.86398C10.6856 7.86398 10.6326 7.87453 10.5833 7.89502C10.5339 7.91551 10.489 7.94554 10.4513 7.98339L8.30027 10.1352L7.77512 9.60924C7.73733 9.57145 7.69246 9.54147 7.64309 9.52102C7.59371 9.50057 7.54079 9.49004 7.48734 9.49004C7.4339 9.49004 7.38098 9.50057 7.3316 9.52102C7.28222 9.54147 7.23736 9.57145 7.19957 9.60924C7.16178 9.64703 7.1318 9.6919 7.11135 9.74127C7.09089 9.79065 7.08037 9.84357 7.08037 9.89702C7.08037 9.95046 7.09089 10.0034 7.11135 10.0528C7.1318 10.1021 7.16178 10.147 7.19957 10.1848L8.01249 10.9977C8.05025 11.0356 8.0951 11.0656 8.14449 11.0861C8.19387 11.1066 8.24681 11.1171 8.30027 11.1171C8.35373 11.1171 8.40667 11.1066 8.45605 11.0861C8.50543 11.0656 8.55029 11.0356 8.58805 10.9977L11.0268 8.55894C11.0647 8.52119 11.0947 8.47633 11.1152 8.42695C11.1357 8.37757 11.1462 8.32463 11.1462 8.27117C11.1462 8.2177 11.1357 8.16476 11.1152 8.11538C11.0947 8.066 11.0647 8.02115 11.0268 7.98339Z" fill="black"/>
</g>
<defs>
<clipPath id="clip0_1_247">
<rect width="29" height="29" fill="white" transform="translate(0.5774 0.954834)"/>
</clipPath>
</defs>
</svg>
