<svg width="48" height="48" viewBox="0 0 15 15" fill="none" xmlns="http://www.w3.org/2000/svg">
<path d="M3.58223 4.19651L3.95764 5.79545L3.58223 7.38743L4.97957 8.24947L5.83465 9.64681L7.43359 9.2714L9.03253 9.64681L9.88762 8.24947L11.285 7.38743L10.9095 5.79545L11.285 4.19651L9.89457 3.33447L9.03253 1.93713L7.43359 2.31949L5.8416 1.94409L4.97261 3.33447L3.58223 4.19651ZM7.44054 8.60402C6.70304 8.60402 5.99574 8.31105 5.47425 7.78955C4.95275 7.26806 4.65978 6.56076 4.65978 5.82325C4.65978 5.08575 4.95275 4.37845 5.47425 3.85696C5.99574 3.33546 6.70304 3.04249 7.44054 3.04249C8.96997 3.04249 10.2144 4.28688 10.2144 5.8163C10.2144 7.35963 8.96997 8.60402 7.44054 8.60402ZM7.42664 7.90883C6.27262 7.90883 5.34802 6.97727 5.34802 5.82325C5.34802 4.67619 6.27262 3.73768 7.42664 3.73768C8.58066 3.73768 9.51917 4.67619 9.51917 5.82325C9.51917 6.97727 8.58066 7.90883 7.42664 7.90883ZM10.0962 8.67354L9.20633 10.2308L7.76033 9.90403L9.51917 13.957L10.4924 12.4276H12.2304L10.0962 8.67354ZM4.7432 8.7222L5.61219 10.2864L7.09295 9.93184L5.34802 13.957L4.37475 12.4276H2.63677L4.7432 8.7222Z" fill="black"/>
</svg>
