<svg viewBox="0 0 9 9" fill="none" xmlns="http://www.w3.org/2000/svg">
<g clip-path="url(#clip0_1_287)">
<path d="M7.71776 1.37947H6.98893V1.82798H7.66169V6.7616H1.38254V1.82798H2.05531V1.37947H1.32648C1.27406 1.38035 1.22232 1.39154 1.17423 1.41242C1.12613 1.43329 1.08262 1.46343 1.04617 1.50113C1.00973 1.53882 0.98107 1.58332 0.961828 1.63209C0.942587 1.68087 0.933142 1.73295 0.934033 1.78537V6.80421C0.933142 6.85663 0.942587 6.90871 0.961828 6.95748C0.98107 7.00626 1.00973 7.05076 1.04617 7.08845C1.08262 7.12615 1.12613 7.15629 1.17423 7.17716C1.22232 7.19804 1.27406 7.20923 1.32648 7.21011H7.71776C7.77018 7.20923 7.82192 7.19804 7.87001 7.17716C7.91811 7.15629 7.96162 7.12615 7.99806 7.08845C8.03451 7.05076 8.06317 7.00626 8.08241 6.95748C8.10165 6.90871 8.11109 6.85663 8.1102 6.80421V1.78537C8.11109 1.73295 8.10165 1.68087 8.08241 1.63209C8.06317 1.58332 8.03451 1.53882 7.99806 1.50113C7.96162 1.46343 7.91811 1.43329 7.87001 1.41242C7.82192 1.39154 7.77018 1.38035 7.71776 1.37947Z" fill="#A6A6A6"/>
<path d="M2.27959 3.17352H2.72905V3.62298H2.27959V3.17352Z" fill="#A6A6A6"/>
<path d="M3.62513 3.17352H4.07459V3.62298H3.62513V3.17352Z" fill="#A6A6A6"/>
<path d="M4.97063 3.17352H5.4201V3.62298H4.97063V3.17352Z" fill="#A6A6A6"/>
<path d="M6.31617 3.17352H6.76563V3.62298H6.31617V3.17352Z" fill="#A6A6A6"/>
<path d="M2.27959 4.29486H2.72905V4.74432H2.27959V4.29486Z" fill="#A6A6A6"/>
<path d="M3.62513 4.29486H4.07459V4.74432H3.62513V4.29486Z" fill="#A6A6A6"/>
<path d="M4.97063 4.29486H5.4201V4.74432H4.97063V4.29486Z" fill="#A6A6A6"/>
<path d="M6.31617 4.29486H6.76563V4.74432H6.31617V4.29486Z" fill="#A6A6A6"/>
<path d="M2.27959 5.41605H2.72905V5.86551H2.27959V5.41605Z" fill="#A6A6A6"/>
<path d="M3.62513 5.41605H4.07459V5.86551H3.62513V5.41605Z" fill="#A6A6A6"/>
<path d="M4.97063 5.41605H5.4201V5.86551H4.97063V5.41605Z" fill="#A6A6A6"/>
<path d="M6.31617 5.41605H6.76563V5.86551H6.31617V5.41605Z" fill="#A6A6A6"/>
<path d="M2.72809 2.27648C2.78756 2.27648 2.8446 2.25285 2.88666 2.2108C2.92871 2.16874 2.95234 2.1117 2.95234 2.05222V0.706692C2.95234 0.647216 2.92871 0.590176 2.88666 0.54812C2.8446 0.506064 2.78756 0.482437 2.72809 0.482437C2.66861 0.482437 2.61157 0.506064 2.56951 0.54812C2.52746 0.590176 2.50383 0.647216 2.50383 0.706692V2.05222C2.50383 2.1117 2.52746 2.16874 2.56951 2.2108C2.61157 2.25285 2.66861 2.27648 2.72809 2.27648Z" fill="#A6A6A6"/>
<path d="M6.31619 2.27648C6.37567 2.27648 6.43271 2.25285 6.47476 2.2108C6.51682 2.16874 6.54044 2.1117 6.54044 2.05222V0.706692C6.54044 0.647216 6.51682 0.590176 6.47476 0.54812C6.43271 0.506064 6.37567 0.482437 6.31619 0.482437C6.25671 0.482437 6.19967 0.506064 6.15762 0.54812C6.11556 0.590176 6.09193 0.647216 6.09193 0.706692V2.05222C6.09193 2.1117 6.11556 2.16874 6.15762 2.2108C6.19967 2.25285 6.25671 2.27648 6.31619 2.27648Z" fill="#A6A6A6"/>
<path d="M3.40086 1.37947H5.64341V1.82798H3.40086V1.37947Z" fill="#A6A6A6"/>
</g>
<defs>
<clipPath id="clip0_1_287">
<rect width="8.07319" height="8.07319" fill="white" transform="translate(0.4855 0.0338898)"/>
</clipPath>
</defs>
</svg>
