<svg width="12" height="12" viewBox="0 0 12 12" fill="none" xmlns="http://www.w3.org/2000/svg">
<path d="M9.06173 5.13672V9.23113C9.06173 9.49878 8.95541 9.75546 8.76616 9.94471C8.57691 10.134 8.32022 10.2403 8.05258 10.2403H3.34322C3.07558 10.2403 2.8189 10.134 2.62964 9.94471C2.44039 9.75546 2.33407 9.49878 2.33407 9.23113V2.50347C2.33407 2.23583 2.44039 1.97915 2.62964 1.7899C2.8189 1.60064 3.07558 1.49432 3.34322 1.49432H5.41933C5.5977 1.49435 5.76876 1.56521 5.8949 1.69132L8.86474 4.66116C8.99085 4.7873 9.0617 4.95835 9.06173 5.13672Z" stroke="white" stroke-width="0.672766" stroke-linejoin="round"/>
<path d="M5.69788 1.66254V4.18541C5.69788 4.36384 5.76876 4.53496 5.89493 4.66113C6.0211 4.78729 6.19222 4.85817 6.37065 4.85817H8.89352M4.01597 6.54009H7.3798M4.01597 8.222H7.3798" stroke="white" stroke-width="0.672766" stroke-linecap="round" stroke-linejoin="round"/>
</svg>
