<svg viewBox="0 0 180 180" fill="none" xmlns="http://www.w3.org/2000/svg">
<circle cx="90" cy="90" r="90" fill="black"/>
<path d="M57.1986 55V82.0165C61.1258 77.1122 65.8334 74.6435 71.2929 74.6435C74.1048 74.6435 76.6229 75.2061 78.8819 76.3213C81.1472 77.4299 82.8407 78.8529 83.9844 80.5803C85.1345 82.3243 85.9117 84.2337 86.3319 86.3383C86.7489 88.4331 86.9574 91.6927 86.9574 96.1138V125H74.7557V98.9829C74.7557 93.8205 74.5345 90.551 74.0701 89.1611C73.6349 87.7996 72.7717 86.633 71.6215 85.8519C70.4462 85.0213 68.9834 84.6109 67.2172 84.6109C65.1952 84.6109 63.3817 85.1404 61.8051 86.1927C60.1938 87.2517 59.0374 88.8335 58.3044 90.9481C57.5588 93.066 57.186 96.1932 57.1986 100.333L57.186 125H45V55H57.2018M105.244 55V82.0165C109.175 77.1122 113.879 74.6435 119.335 74.6435C122.138 74.6435 124.675 75.2061 126.937 76.3213C129.193 77.4299 130.886 78.8529 132.024 80.5803C133.172 82.3127 133.97 84.2719 134.371 86.3383C134.791 88.4331 135 91.6927 135 96.1138V125H122.811V98.9829C122.811 93.8205 122.58 90.551 122.116 89.1611C121.681 87.7977 120.815 86.6305 119.661 85.8519C118.498 85.0213 117.023 84.6109 115.257 84.6109C113.238 84.6109 111.424 85.1404 109.844 86.1927C108.255 87.2517 107.093 88.8335 106.35 90.9481C105.617 93.066 105.244 96.1932 105.244 100.333V125H93.0583V55H105.244Z" fill="#FEFEFE"/>
</svg>
