<svg width="15" height="15" viewBox="0 0 15 15" fill="none" xmlns="http://www.w3.org/2000/svg">
<path d="M0 7.17617C0 11.1395 3.21288 14.3523 7.17617 14.3523C11.1395 14.3523 14.3523 11.1395 14.3523 7.17617C14.3523 3.21288 11.1395 0 7.17617 0C3.21288 0 0 3.21288 0 7.17617Z" fill="#2867B2"/>
<path d="M5.20273 10.7642H3.67779V5.96518H5.20273V10.7642ZM4.44026 5.29241C3.9469 5.29241 3.58809 4.93361 3.58809 4.44024C3.58809 3.94688 3.99175 3.58807 4.44026 3.58807C4.93362 3.58807 5.29243 3.94688 5.29243 4.44024C5.29243 4.93361 4.93362 5.29241 4.44026 5.29241ZM10.7643 10.7642H9.23933V8.16288C9.23933 7.40041 8.92536 7.17616 8.47685 7.17616C8.02834 7.17616 7.57983 7.53497 7.57983 8.20773V10.7642H6.0549V5.96518H7.49013V6.63795C7.62468 6.32399 8.16289 5.83063 8.92536 5.83063C9.77753 5.83063 10.6746 6.32399 10.6746 7.80407V10.7642H10.7643Z" fill="white"/>
</svg>
