<svg viewBox="0 0 8 8" fill="none" xmlns="http://www.w3.org/2000/svg">
<g clip-path="url(#clip0_160_503)">
<path fill-rule="evenodd" clip-rule="evenodd" d="M3.31888 1.53659C3.31418 1.29873 3.40416 1.06875 3.56903 0.897236C3.7339 0.725722 3.96015 0.626727 4.19801 0.622029C4.43587 0.617331 4.66585 0.707314 4.83737 0.872184C5.00888 1.03705 5.10787 1.2633 5.11257 1.50116C5.11727 1.73902 5.02729 1.969 4.86242 2.14052C4.69755 2.31203 4.4713 2.41102 4.23344 2.41572C3.99558 2.42042 3.7656 2.33044 3.59409 2.16557C3.42257 2.0007 3.32358 1.77445 3.31888 1.53659ZM2.59899 5.51686C2.6633 5.5786 2.74948 5.61229 2.8386 5.61053C2.92772 5.60877 3.01251 5.5717 3.07432 5.50748L3.94027 4.60663L3.99677 7.46712C3.99853 7.55632 4.03565 7.64117 4.09997 7.70299C4.16429 7.76482 4.25053 7.79856 4.33973 7.7968C4.42892 7.79504 4.51377 7.75791 4.57559 7.6936C4.63742 7.62928 4.67116 7.54304 4.6694 7.45384L4.6129 4.59335L5.51374 5.45929C5.57867 5.51744 5.66363 5.54812 5.75073 5.54486C5.83783 5.5416 5.92027 5.50466 5.98067 5.44183C6.04107 5.37899 6.07472 5.29516 6.07454 5.208C6.07436 5.12084 6.04035 5.03716 5.97968 4.97458L4.49352 3.54599L4.25115 3.31257L4.01818 3.55493L2.5896 5.04109C2.55896 5.07294 2.5349 5.11051 2.51879 5.15166C2.50268 5.19282 2.49484 5.23674 2.49571 5.28092C2.49659 5.32511 2.50616 5.36869 2.52388 5.40917C2.5416 5.44965 2.56712 5.48625 2.59899 5.51686Z" fill="white"/>
</g>
<defs>
<clipPath id="clip0_160_503">
<rect width="7.17617" height="7.17617" fill="white" transform="translate(7.92712 7.72589) rotate(178.868)"/>
</clipPath>
</defs>
</svg>
