<svg viewBox="0 0 12 12" fill="none" xmlns="http://www.w3.org/2000/svg">
<path d="M9.36504 2.27003C9.28019 2.18578 9.17376 2.12656 9.05745 2.09886C8.94113 2.07117 8.81943 2.07608 8.70573 2.11305L2.14402 4.30178C2.02232 4.34034 1.91479 4.4141 1.83499 4.51374C1.75519 4.61338 1.70671 4.73444 1.69567 4.86162C1.68463 4.9888 1.71153 5.1164 1.77297 5.2283C1.83441 5.3402 1.92763 5.43138 2.04086 5.49033L4.76332 6.83586L6.10885 9.56729C6.16293 9.67421 6.24569 9.76397 6.34787 9.82654C6.45005 9.88912 6.56762 9.92203 6.68743 9.92162H6.73228C6.8606 9.91217 6.98311 9.86434 7.08389 9.78436C7.18467 9.70437 7.25906 9.59592 7.2974 9.4731L9.51753 2.92934C9.55717 2.81628 9.56389 2.69429 9.53689 2.57757C9.50989 2.46084 9.4503 2.35419 9.36504 2.27003ZM2.42209 4.92072L8.14957 3.01007L4.96963 6.19001L2.42209 4.92072ZM6.71883 9.21297L5.44506 6.66543L8.625 3.48549L6.71883 9.21297Z" fill="white"/>
</svg>
