<svg width="8" height="8" viewBox="0 0 8 8" fill="none" xmlns="http://www.w3.org/2000/svg">
<g clip-path="url(#clip0_118_478)">
<path fill-rule="evenodd" clip-rule="evenodd" d="M6.8577 2.84169C7.09561 2.84169 7.32377 2.9362 7.49199 3.10442C7.66021 3.27264 7.75472 3.5008 7.75472 3.73871C7.75472 3.97661 7.66021 4.20477 7.49199 4.373C7.32377 4.54122 7.09561 4.63573 6.8577 4.63573C6.6198 4.63573 6.39163 4.54122 6.22341 4.373C6.05519 4.20477 5.96068 3.97661 5.96068 3.73871C5.96068 3.5008 6.05519 3.27264 6.22341 3.10442C6.39163 2.9362 6.6198 2.84169 6.8577 2.84169ZM2.89242 2.04334C2.82942 2.10641 2.79404 2.19191 2.79404 2.28105C2.79404 2.37019 2.82942 2.45569 2.89242 2.51876L3.77598 3.40233H0.914935C0.825721 3.40233 0.740161 3.43777 0.677077 3.50085C0.613992 3.56393 0.578552 3.64949 0.578552 3.73871C0.578552 3.82792 0.613992 3.91348 0.677077 3.97657C0.740161 4.03965 0.825721 4.07509 0.914935 4.07509H3.77598L2.89242 4.95866C2.833 5.02242 2.80065 5.10677 2.80219 5.19391C2.80373 5.28106 2.83903 5.36421 2.90066 5.42584C2.96229 5.48747 3.04544 5.52277 3.13259 5.52431C3.21973 5.52585 3.30407 5.4935 3.36784 5.43408L4.8255 3.97642L5.06366 3.73871L4.82595 3.501L3.36829 2.04334C3.33705 2.01208 3.29996 1.98728 3.25913 1.97037C3.21831 1.95345 3.17455 1.94474 3.13035 1.94474C3.08616 1.94474 3.0424 1.95345 3.00158 1.97037C2.96075 1.98728 2.92366 2.01208 2.89242 2.04334Z" fill="black"/>
</g>
<defs>
<clipPath id="clip0_118_478">
<rect width="7.17617" height="7.17617" fill="white" transform="matrix(0 -1 1 0 0.578629 7.32678)"/>
</clipPath>
</defs>
</svg>
